<svg width="28" height="28" viewBox="0 0 28 28" fill="none" xmlns="http://www.w3.org/2000/svg">

<g id="&#229;&#183;&#165;&#228;&#189;&#156;&#229;&#143;&#176;">

<g id="Group 93">
<g id="Group 28">
<g id="user-setting-filled">
<path id="Union" d="M9.33337 16.8333H14.3177C13.6124 18.0607 13.2084 19.4839 13.2084 21.0003C13.2084 22.5165 13.6126 23.9391 14.3177 25.1663H2.83337V23.3333C2.83338 19.7435 5.74352 16.8333 9.33337 16.8333ZM21.5834 18.1663C20.5518 18.1663 19.6496 18.7184 19.1547 19.5403H19.1537L19.1498 19.5482L19.1068 19.6224L19.1029 19.6302C18.878 20.0367 18.7494 20.5044 18.7494 21.0003C18.7494 21.4958 18.8773 21.9632 19.1019 22.3694L19.1068 22.3782L19.1498 22.4515L19.1547 22.4593C19.6495 23.2813 20.5517 23.8333 21.5834 23.8333C22.6149 23.8332 23.5173 23.2813 24.0121 22.4593L24.017 22.4515L24.059 22.3782L24.0638 22.3694C24.2885 21.9631 24.4163 21.4959 24.4164 21.0003C24.4164 20.5045 24.2887 20.0366 24.0638 19.6302L24.059 19.6224L24.017 19.5482L24.0121 19.5403L23.9144 19.39C23.4038 18.6519 22.5506 18.1664 21.5834 18.1663ZM13.4164 2.83331C16.6841 2.83331 19.3334 5.48262 19.3334 8.75031C19.3332 12.0178 16.684 14.6663 13.4164 14.6663C10.149 14.6661 7.50054 12.0177 7.50037 8.75031C7.50037 5.48273 10.1488 2.83349 13.4164 2.83331ZM20.9164 25.1321L20.5414 25.0355C19.7976 24.844 19.1328 24.4518 18.6097 23.9193L18.3383 23.6429L18.0033 23.8362L17.0443 24.389L16.3783 23.2347L17.3353 22.6829L17.6713 22.4886L17.5677 22.1155C17.4695 21.7611 17.4164 21.3873 17.4164 21.0003C17.4164 20.6131 17.4694 20.2387 17.5677 19.8841L17.6713 19.511L17.3353 19.3177L16.3773 18.764L17.0443 17.6097L18.0033 18.1634L18.3383 18.3568L18.6097 18.0804C19.1328 17.5478 19.7976 17.1556 20.5414 16.9642L20.9164 16.8675V15.3753H22.2494V16.8675L22.6254 16.9642C23.369 17.1556 24.0331 17.5479 24.556 18.0804L24.8275 18.3568L25.1625 18.1634L26.1205 17.6097L26.7875 18.765L25.8304 19.3177L25.4955 19.511L25.599 19.8841C25.6973 20.2387 25.7494 20.6131 25.7494 21.0003C25.7494 21.3873 25.6972 21.7612 25.599 22.1155L25.4955 22.4886L25.8304 22.6829L26.7875 23.2347L26.1205 24.389L25.1625 23.8362L24.8275 23.6429L24.556 23.9193C24.0331 24.4518 23.3691 24.844 22.6254 25.0355L22.2494 25.1321V26.6253H20.9164V25.1321Z" fill="white"/>
</g>
</g>
</g>
</g>

</svg>
